<svg width="40" height="36" viewBox="0 0 40 36" fill="none" xmlns="http://www.w3.org/2000/svg">
<path d="M20.1951 21.4284C22.1001 21.4284 23.6431 19.8934 23.6431 17.9998C23.6431 16.1063 22.1001 14.5713 20.1951 14.5713C18.2911 14.5713 16.748 16.1063 16.748 17.9998C16.748 19.8934 18.2911 21.4284 20.1951 21.4284Z" fill="#61DAFB"/>
<path fill-rule="evenodd" clip-rule="evenodd" d="M3.98505 16.1959C3.20305 16.8978 2.94604 17.5097 2.94604 17.9999C2.94604 18.4901 3.20305 19.102 3.98505 19.8039C4.76605 20.5053 5.96704 21.1942 7.55804 21.7982C10.731 23.003 15.199 23.7742 20.196 23.7742C25.192 23.7742 29.66 23.003 32.833 21.7982C34.424 21.1942 35.625 20.5053 36.407 19.8039C37.188 19.102 37.4451 18.4901 37.4451 17.9999C37.4451 17.5097 37.188 16.8978 36.407 16.1959C35.625 15.4945 34.424 14.8056 32.833 14.2016C29.66 12.9968 25.192 12.2256 20.196 12.2256C15.199 12.2256 10.731 12.9968 7.55804 14.2016C5.96704 14.8056 4.76605 15.4945 3.98505 16.1959ZM6.67104 11.8644C10.193 10.5268 14.975 9.72559 20.196 9.72559C25.416 9.72559 30.198 10.5268 33.721 11.8644C35.478 12.5315 36.986 13.3562 38.077 14.3355C39.167 15.3144 39.9451 16.5504 39.9451 17.9999C39.9451 19.4494 39.167 20.6854 38.077 21.6643C36.986 22.6436 35.478 23.4683 33.721 24.1354C30.198 25.473 25.416 26.2742 20.196 26.2742C14.975 26.2742 10.193 25.473 6.67104 24.1354C4.91404 23.4683 3.40605 22.6436 2.31505 21.6643C1.22405 20.6854 0.446045 19.4494 0.446045 17.9999C0.446045 16.5504 1.22405 15.3144 2.31505 14.3355C3.40605 13.3562 4.91404 12.5315 6.67104 11.8644Z" fill="#61DAFB"/>
<path fill-rule="evenodd" clip-rule="evenodd" d="M13.6709 3.1394C12.6699 2.81741 12.0049 2.90043 11.5729 3.14858C11.1409 3.39672 10.7359 3.92778 10.5159 4.95075C10.2959 5.97379 10.2969 7.35171 10.5659 9.02274C11.1029 12.3559 12.6649 16.5875 15.1619 20.8896C17.6599 25.1916 20.5639 28.6523 23.1989 30.7813C24.5189 31.8487 25.7189 32.5382 26.7199 32.8602C27.7209 33.1822 28.3859 33.0992 28.8179 32.8511C29.2499 32.6029 29.6549 32.0719 29.8749 31.0489C30.0949 30.0259 30.0939 28.6479 29.8249 26.9769C29.2879 23.6437 27.7259 19.4121 25.2289 15.11C22.7309 10.808 19.8269 7.34739 17.1919 5.21833C15.8719 4.15093 14.6719 3.46142 13.6709 3.1394ZM18.7679 3.28276C21.6959 5.6489 24.7859 9.36824 27.3969 13.8653C30.0079 18.3623 31.7019 22.8831 32.2989 26.5875C32.5959 28.4351 32.6319 30.1473 32.3239 31.577C32.0169 33.0069 31.3299 34.2914 30.0729 35.0131C28.8159 35.7348 27.3539 35.6841 25.9549 35.234C24.5559 34.784 23.0829 33.8971 21.6229 32.7169C18.6949 30.3507 15.6049 26.6314 12.9939 22.1344C10.3829 17.6373 8.68889 13.1165 8.09289 9.41214C7.79489 7.56451 7.75889 5.85239 8.06689 4.42262C8.37389 2.99278 9.06089 1.70825 10.3179 0.986541C11.5749 0.264831 13.0369 0.315551 14.4359 0.765611C15.8349 1.21565 17.3079 2.10256 18.7679 3.28276Z" fill="#61DAFB"/>
<path fill-rule="evenodd" clip-rule="evenodd" d="M29.8749 4.95076C29.6549 3.92779 29.2499 3.39673 28.8179 3.14858C28.3859 2.90044 27.7209 2.81741 26.7199 3.13941C25.7189 3.46142 24.5189 4.15094 23.1989 5.21833C20.5639 7.3474 17.6599 10.808 15.1619 15.1101C12.6649 19.4121 11.1029 23.6437 10.5659 26.9769C10.2969 28.648 10.2959 30.0259 10.5159 31.0489C10.7359 32.0719 11.1409 32.603 11.5729 32.8511C12.0059 33.0993 12.6699 33.1823 13.6709 32.8603C14.6719 32.5383 15.8719 31.8488 17.1929 30.7814C19.8269 28.6523 22.7309 25.1917 25.2289 20.8896C27.7269 16.5875 29.2879 12.356 29.8249 9.0228C30.0939 7.35172 30.0949 5.9738 29.8749 4.95076ZM32.2989 9.4122C31.7019 13.1165 30.0079 17.6373 27.3969 22.1344C24.7859 26.6315 21.6959 30.3508 18.7679 32.7169C17.3079 33.8971 15.8349 34.784 14.4359 35.2341C13.0369 35.6841 11.5749 35.7349 10.3179 35.0131C9.06089 34.2914 8.37389 33.0069 8.06689 31.5771C7.75889 30.1473 7.79489 28.4352 8.09289 26.5875C8.68889 22.8832 10.3829 18.3624 12.9939 13.8653C15.6049 9.3682 18.6949 5.64891 21.6229 3.28277C23.0829 2.10257 24.5559 1.21566 25.9549 0.765618C27.3539 0.315548 28.8159 0.264829 30.0729 0.986549C31.3299 1.70826 32.0169 2.99279 32.3249 4.42263C32.6319 5.8524 32.5959 7.56452 32.2989 9.4122Z" fill="#61DAFB"/>
</svg>
