<svg width="36" height="40" viewBox="0 0 36 40" fill="none" xmlns="http://www.w3.org/2000/svg">
<path d="M16.4081 0.970554C17.3721 0.418615 18.6281 0.416122 19.5911 0.970554C24.4381 3.70933 29.2871 6.44382 34.1331 9.18426C35.0441 9.6977 35.6541 10.7121 35.6451 11.7624V28.2399C35.6521 29.3337 34.9821 30.3723 34.0201 30.8741C29.1891 33.5978 24.3611 36.3248 19.5301 39.0485C18.5461 39.6113 17.2651 39.5679 16.3111 38.959C14.8631 38.1194 13.4121 37.284 11.9641 36.4452C11.6681 36.2687 11.3341 36.1283 11.1251 35.8413C11.3101 35.5923 11.6401 35.5613 11.9091 35.4525C12.5131 35.2603 13.0691 34.9517 13.6241 34.6523C13.7641 34.5561 13.9361 34.593 14.0701 34.679C15.3091 35.3891 16.5371 36.1199 17.7791 36.8232C18.0441 36.9762 18.3131 36.773 18.5391 36.6467C23.2801 33.9674 28.0271 31.2981 32.7661 28.6179C32.9421 28.5334 33.0391 28.347 33.0251 28.1546C33.0281 22.719 33.0261 17.2825 33.0271 11.8469C33.0471 11.6286 32.9201 11.4279 32.7231 11.3386C27.9091 8.62734 23.0971 5.91197 18.2831 3.20005C18.2001 3.14272 18.1011 3.11196 18.0001 3.11181C17.8991 3.11166 17.8001 3.14213 17.7161 3.19922C12.9031 5.91197 8.09211 8.62983 3.27911 11.3409C3.08211 11.4304 2.95011 11.6278 2.97311 11.8469C2.97411 17.2825 2.97311 22.719 2.97311 28.1555C2.96511 28.2493 2.9861 28.3435 3.0321 28.4253C3.0791 28.5071 3.1501 28.5726 3.2351 28.6129C4.5201 29.3413 5.80611 30.0646 7.0911 30.7905C7.8151 31.1802 8.7041 31.4118 9.5021 31.1132C10.2061 30.8607 10.7001 30.1423 10.6861 29.3948C10.6931 23.9909 10.6831 18.5862 10.6911 13.1832C10.6741 12.9433 10.9011 12.7451 11.1341 12.7676C11.7511 12.7635 12.3701 12.7593 12.9871 12.7693C13.2441 12.7635 13.4221 13.0218 13.3901 13.2635C13.3871 18.7016 13.3961 24.1398 13.3861 29.5779C13.3871 31.0272 12.7921 32.6042 11.4511 33.3133C9.80011 34.1689 7.7581 33.9874 6.1271 33.1671C4.7141 32.4621 3.36611 31.6301 1.97911 30.8748C1.01511 30.3758 0.348097 29.333 0.355097 28.2401V11.7624C0.345097 10.6904 0.979108 9.65753 1.91911 9.15158C6.74911 6.42568 11.5781 3.6977 16.4081 0.970554Z" fill="#8CC84B"/>
<path d="M20.622 12.3848C22.728 12.2492 24.983 12.3044 26.879 13.3422C28.347 14.1375 29.161 15.8066 29.186 17.4373C29.145 17.6572 28.916 17.7785 28.706 17.7634C28.094 17.7626 27.483 17.7717 26.872 17.7593C26.613 17.7693 26.462 17.5302 26.429 17.301C26.254 16.5208 25.828 15.7481 25.094 15.3717C23.967 14.8073 22.659 14.8357 21.43 14.8475C20.533 14.8952 19.568 14.9729 18.808 15.5006C18.224 15.9003 18.047 16.7072 18.255 17.3571C18.451 17.8237 18.99 17.9742 19.431 18.113C21.97 18.777 24.66 18.7109 27.15 19.5848C28.181 19.941 29.19 20.6335 29.543 21.713C30.004 23.1598 29.802 24.8892 28.773 26.0507C27.938 27.0065 26.722 27.5267 25.509 27.8093C23.896 28.169 22.222 28.1781 20.584 28.0184C19.044 27.8428 17.44 27.4381 16.251 26.3885C15.234 25.5055 14.738 24.1298 14.787 22.8019C14.799 22.5777 15.022 22.4213 15.237 22.4398C15.852 22.4348 16.468 22.4331 17.083 22.4406C17.329 22.423 17.512 22.6355 17.524 22.8672C17.638 23.6105 17.917 24.3907 18.565 24.8314C19.816 25.6385 21.386 25.5832 22.818 25.6058C24.005 25.5532 25.337 25.5373 26.306 24.7529C26.817 24.3055 26.968 23.5571 26.83 22.9132C26.68 22.3695 26.112 22.1162 25.623 21.9506C23.117 21.1578 20.397 21.4454 17.915 20.5489C16.907 20.1928 15.933 19.5195 15.545 18.4843C15.005 17.0193 15.253 15.2071 16.39 14.0848C17.499 12.9684 19.1 12.5387 20.622 12.3848Z" fill="#8CC84B"/>
</svg>
