<svg width="40" height="40" viewBox="0 0 40 40" fill="none" xmlns="http://www.w3.org/2000/svg">
<path d="M39.7487 0.555664H0.642578V39.4445H39.7487V0.555664Z" fill="#F7DF1E"/>
<path d="M26.9119 30.9377C27.6996 32.2167 28.7244 33.1568 30.537 33.1568C32.0596 33.1568 33.0323 32.4 33.0323 31.3544C33.0323 30.1013 32.0329 29.6574 30.357 28.9284L29.4383 28.5365C26.7865 27.413 25.0249 26.0056 25.0249 23.0303C25.0249 20.2895 27.1248 18.2031 30.4066 18.2031C32.7431 18.2031 34.4228 19.0118 35.6332 21.1291L32.7716 22.9562C32.1416 21.8328 31.4619 21.3902 30.4066 21.3902C29.3303 21.3902 28.6481 22.0692 28.6481 22.9562C28.6481 24.0525 29.3309 24.4963 30.9076 25.1753L31.8262 25.5667C34.9485 26.8982 36.7114 28.2556 36.7114 31.3074C36.7114 34.5976 34.1124 36.4 30.622 36.4C27.2092 36.4 25.0044 34.7828 23.9256 32.663L26.9119 30.9377ZM13.9305 31.2544C14.5078 32.2729 15.0329 33.134 16.2955 33.134C17.5028 33.134 18.2645 32.6642 18.2645 30.8377V18.4118H21.9392V30.8871C21.9392 34.671 19.7083 36.3932 16.4519 36.3932C13.5097 36.3932 11.8058 34.879 10.9392 33.0553L13.9305 31.2544Z" fill="black"/>
</svg>
