<svg width="39" height="28" viewBox="0 0 39 28" fill="none" xmlns="http://www.w3.org/2000/svg">
<path d="M38.5056 10.5343C38.4006 10.4506 37.4156 9.70711 35.3396 9.70711C34.7906 9.70951 34.2436 9.75661 33.7026 9.84781C33.3016 7.09321 31.0236 5.75021 30.9216 5.69001L30.3646 5.36841L29.9976 5.89761C29.5386 6.60841 29.2026 7.39211 29.0066 8.21511C28.6346 9.78751 28.8606 11.2644 29.6596 12.527C28.6946 13.0645 27.1476 13.1968 26.8346 13.2085H1.21763C0.548632 13.2094 0.00564338 13.7501 0.00164338 14.4192C-0.0283566 16.6634 0.352637 18.8941 1.12364 21.0017C2.00664 23.3159 3.31963 25.0205 5.02763 26.0637C6.94063 27.2359 10.0506 27.9057 13.5756 27.9057C15.1676 27.9107 16.7576 27.7666 18.3226 27.4754C20.4986 27.0758 22.5936 26.3151 24.5186 25.2248C26.1046 24.3061 27.5326 23.1374 28.7466 21.7636C30.7766 19.4661 31.9856 16.9075 32.8846 14.6335H33.2426C35.4646 14.6335 36.8316 13.7443 37.5846 12.9992C38.0856 12.524 38.4766 11.945 38.7296 11.3029L38.8896 10.8374L38.5056 10.5343Z" fill="#2496ED"/>
<path d="M3.59148 12.4584H7.02448C7.19048 12.4584 7.32448 12.3242 7.32448 12.1587V9.10096C7.32548 8.93536 7.19147 8.80046 7.02647 8.79956H7.02448H3.59148C3.42648 8.79956 3.29248 8.93376 3.29248 9.09926V9.10096V12.1586C3.29248 12.3242 3.42648 12.4584 3.59148 12.4584Z" fill="#2496ED"/>
<path d="M8.32251 12.4584H11.7555C11.9205 12.4584 12.0545 12.3242 12.0545 12.1587V9.10096C12.0555 8.93536 11.9225 8.80046 11.7565 8.79956H8.32251C8.15551 8.79956 8.02051 8.93446 8.02051 9.10096V12.1586C8.02151 12.3245 8.15651 12.4584 8.32251 12.4584Z" fill="#2496ED"/>
<path d="M13.1247 12.4584H16.5577C16.7237 12.4584 16.8577 12.3242 16.8577 12.1587V9.10096C16.8587 8.93536 16.7247 8.80046 16.5597 8.79956H16.5577H13.1247C12.9597 8.79956 12.8257 8.93376 12.8257 9.09926V9.10096V12.1586C12.8257 12.3242 12.9597 12.4584 13.1247 12.4584Z" fill="#2496ED"/>
<path d="M17.8705 12.4584H21.3035C21.4695 12.4584 21.6036 12.3245 21.6046 12.1587V9.10096C21.6046 8.93446 21.4695 8.79956 21.3035 8.79956H17.8705C17.7045 8.79956 17.5706 8.93376 17.5706 9.09926V9.10096V12.1586C17.5706 12.3242 17.7045 12.4584 17.8705 12.4584Z" fill="#2496ED"/>
<path d="M8.32249 8.05933H11.7555C11.9215 8.05843 12.0555 7.92374 12.0555 7.75794V4.70034C12.0555 4.53474 11.9205 4.40063 11.7555 4.40063H8.32249C8.15649 4.40063 8.02248 4.53444 8.02148 4.70034V7.75794C8.02248 7.92404 8.15649 8.05843 8.32249 8.05933Z" fill="#2496ED"/>
<path d="M13.1247 8.05933H16.5577C16.7237 8.05843 16.8577 7.92374 16.8577 7.75794V4.70034C16.8577 4.53474 16.7237 4.40063 16.5577 4.40063H13.1247C12.9597 4.40063 12.8257 4.53484 12.8257 4.70034V7.75794C12.8257 7.92374 12.9597 8.05843 13.1247 8.05933Z" fill="#2496ED"/>
<path d="M17.8705 8.05933H21.3035C21.4695 8.05843 21.6036 7.92404 21.6046 7.75794V4.70034C21.6036 4.53444 21.4695 4.40063 21.3035 4.40063H17.8705C17.7045 4.40063 17.5706 4.53484 17.5706 4.70034V7.75794C17.5706 7.92374 17.7045 8.05843 17.8705 8.05933Z" fill="#2496ED"/>
<path d="M17.8705 3.65878H21.3035C21.4695 3.65878 21.6036 3.52488 21.6046 3.35908V0.29972C21.6036 0.13388 21.4695 0 21.3035 0H17.8705C17.7045 0 17.5706 0.13416 17.5706 0.29972V3.35908C17.5706 3.52458 17.7045 3.65878 17.8705 3.65878Z" fill="#2496ED"/>
<path d="M22.6586 12.4584H26.0906C26.2566 12.4584 26.3916 12.3245 26.3926 12.1587V9.10096C26.3926 8.93446 26.2576 8.79956 26.0906 8.79956H22.6586C22.4926 8.79956 22.3586 8.93376 22.3586 9.09926V9.10096V12.1586C22.3586 12.3242 22.4926 12.4584 22.6586 12.4584Z" fill="#2496ED"/>
</svg>
