<svg width="40" height="39" viewBox="0 0 40 39" fill="none" xmlns="http://www.w3.org/2000/svg">
<path d="M38.3683 17.7117L21.2942 0.733388C20.3112 -0.244462 18.7173 -0.244462 17.7333 0.733388L14.1873 4.25921L18.6853 8.73184C19.7303 8.38067 20.9293 8.61624 21.7623 9.44484C22.5993 10.2786 22.8343 11.4807 22.4723 12.5234L26.8072 16.834C27.8562 16.4747 29.0663 16.7071 29.9033 17.5414C31.0743 18.705 31.0743 20.591 29.9033 21.7554C28.7323 22.9199 26.8363 22.9199 25.6643 21.7554C24.7843 20.8789 24.5663 19.5929 25.0123 18.5142L20.9703 14.4944L20.9693 25.0729C21.2623 25.217 21.5303 25.4073 21.7623 25.6365C22.9323 26.8001 22.9323 28.6863 21.7623 29.8516C20.5913 31.0155 18.6933 31.0155 17.5243 29.8516C16.3543 28.6863 16.3543 26.8003 17.5243 25.6367C17.8053 25.3576 18.1382 25.1365 18.5052 24.9863V14.3092C18.1382 14.16 17.8043 13.9389 17.5243 13.6589C16.6373 12.7781 16.4242 11.484 16.8782 10.401L12.4453 5.99159L0.73725 17.6332C-0.24575 18.6119 -0.24575 20.198 0.73725 21.176L17.8123 38.1546C18.7953 39.1326 20.3893 39.1326 21.3743 38.1546L38.3683 21.2548C39.3523 20.2765 39.3523 18.6895 38.3683 17.7117Z" fill="#DE4C36"/>
</svg>
