<svg width="29" height="39" viewBox="0 0 29 39" fill="none" xmlns="http://www.w3.org/2000/svg">
<path fill-rule="evenodd" clip-rule="evenodd" d="M27.7012 18.739C27.7012 26.4436 21.595 32.6894 14.0625 32.6894C6.53013 32.6894 0.423828 26.4436 0.423828 18.739C0.423828 11.0343 6.53013 4.78833 14.0625 4.78833C21.595 4.78833 27.7012 11.0343 27.7012 18.739Z" fill="#D33833"/>
<path d="M0.979355 22.1938C0.979355 22.1938 -0.00794315 7.64582 13.3971 7.23011L12.4619 5.67139L5.18796 8.11343L3.10955 10.5034L1.29115 13.9847L0.251953 18.0373L0.563652 20.739" fill="#EF3D3A"/>
<path d="M4.7211 9.2221C2.3281 11.6705 0.847397 15.0511 0.847397 18.7909C0.847397 22.53 2.3281 25.9109 4.7211 28.3589C7.1152 30.8069 10.4146 32.3174 14.0622 32.3174C17.71 32.3174 21.0096 30.8069 23.4035 28.3589C25.7963 25.9109 27.2774 22.53 27.2774 18.7909C27.2774 15.0511 25.7963 11.6705 23.4035 9.2221C21.0096 6.77462 17.71 5.26406 14.0622 5.26375C10.4146 5.26406 7.1152 6.77462 4.7211 9.2221ZM4.1154 28.9511C1.5722 26.3502 0 22.7558 0 18.7909C0 14.8254 1.5722 11.2313 4.1154 8.63027C6.6579 6.02877 10.1774 4.41628 14.0622 4.41675C17.947 4.41628 21.4669 6.02877 24.0091 8.63027C26.5524 11.2313 28.1248 14.8257 28.1245 18.7909C28.1248 22.7558 26.5524 26.3502 24.0091 28.9511C21.4669 31.5525 17.947 33.1647 14.0622 33.1647C10.1774 33.1647 6.6579 31.5525 4.1154 28.9511Z" fill="#231F20"/>
<path fill-rule="evenodd" clip-rule="evenodd" d="M19.8038 18.8164L17.7254 19.1281L14.9196 19.4398L13.1011 19.4917L11.3346 19.4398L9.9836 19.0241L8.7886 17.7253L7.85341 15.0754L7.64561 14.5039L6.39861 14.0883L5.67121 12.8932L5.15161 11.1787L5.72321 9.67176L7.07401 9.20416L8.16511 9.72386L8.68481 10.8669L9.3083 10.7629L9.51601 10.5033L9.3083 9.30816L9.25621 7.80134L9.56801 5.72311L9.55581 4.53599L10.5032 3.02139L12.1658 1.82632L15.0755 0.579346L18.2968 1.04696L21.1025 3.07329L22.4015 5.15153L23.2328 6.65834L23.4405 10.3993L22.8171 13.6207L21.6741 16.4783L20.583 17.9851" fill="#F0D6B7"/>
<path fill-rule="evenodd" clip-rule="evenodd" d="M18.037 27.8046L10.607 28.1163V29.3633L11.2305 33.7277L10.9187 34.0915L5.72311 32.3249L5.35931 31.7014L4.83971 25.8303L3.64491 22.2972L3.38501 21.4659L7.5415 18.6083L8.84051 18.0886L9.98351 19.4915L10.9707 20.3748L12.1138 20.7385L12.6333 20.8943L13.2568 23.596L13.7244 24.1676L14.9195 23.7519L14.0881 25.3627L18.6084 27.4928L18.037 27.8046Z" fill="#335061"/>
<path fill-rule="evenodd" clip-rule="evenodd" d="M5.72314 9.67173L7.07394 9.20413L8.16504 9.72373L8.68464 10.8667L9.30814 10.7628L9.46404 10.1393L9.15224 8.94442L9.46404 6.08668L9.20414 4.52796L10.1393 3.43686L12.1657 1.82623L11.5941 1.04688L8.73654 2.44973L7.54153 3.38494L6.86604 4.83969L5.82693 6.24255L5.51514 7.90522L5.72314 9.67173Z" fill="#6D6B6D"/>
<path fill-rule="evenodd" clip-rule="evenodd" d="M7.85345 4.78768C7.85345 4.78768 8.63275 2.86532 11.7501 1.93009C14.8676 0.994861 11.906 1.25454 11.906 1.25454L8.52895 2.55358L7.22994 3.85245L6.65845 4.89165L7.85345 4.78768Z" fill="#DCD9D8"/>
<path fill-rule="evenodd" clip-rule="evenodd" d="M6.29454 9.30791C6.29454 9.30791 5.20344 5.67083 9.36004 5.15132L9.20414 4.52783L6.34664 5.20338L5.51514 7.9051L5.72314 9.67161L6.29454 9.30791Z" fill="#DCD9D8"/>
<path fill-rule="evenodd" clip-rule="evenodd" d="M7.95728 14.1402L8.63758 13.481C8.63758 13.481 8.94458 13.5167 8.99648 13.8803C9.04838 14.2442 9.20418 17.5175 11.4384 19.2841C11.6422 19.4453 9.77588 19.0241 9.77588 19.0241L8.11308 16.4264" fill="#F7E4CD"/>
<path fill-rule="evenodd" clip-rule="evenodd" d="M17.5177 13.1528C17.5177 13.1528 17.6388 11.5779 18.063 11.699C18.4871 11.8201 18.4871 12.2442 18.4871 12.2442C18.4871 12.2442 17.4571 12.9106 17.5177 13.1528Z" fill="#F7E4CD"/>
<path d="M21.8297 7.38574C21.8297 7.38574 20.9734 7.56655 20.8945 8.32097C20.8156 9.07555 21.8297 8.47684 21.9856 8.42494" fill="#F7E4CD"/>
<path d="M15.5431 7.4375C15.5431 7.4375 14.3999 7.59337 14.3999 8.32067C14.3999 9.04812 15.699 8.99621 16.0626 8.68447" fill="#F7E4CD"/>
<path fill-rule="evenodd" clip-rule="evenodd" d="M8.47671 10.8149C8.47671 10.8149 6.50231 9.61981 6.29451 10.763C6.08671 11.906 5.61901 12.7374 6.60631 13.9323L5.93081 13.7245L5.30741 12.1139L5.09961 10.5552L6.29451 9.30811L7.64541 9.41201L8.4248 10.0355L8.47671 10.8149Z" fill="#F7E4CD"/>
<path fill-rule="evenodd" clip-rule="evenodd" d="M9.4119 7.54161C9.4119 7.54161 10.2952 2.96943 14.7636 2.08611C18.4424 1.35897 20.3749 2.24198 21.1023 3.07324C21.1023 3.07324 17.829 -0.823388 14.7116 0.371521C11.5941 1.56659 9.3081 3.74879 9.36 5.15148C9.4485 7.54068 9.4119 7.54161 9.4119 7.54161Z" fill="#F7E4CD"/>
<path fill-rule="evenodd" clip-rule="evenodd" d="M21.4662 3.59279C21.4662 3.59279 19.9595 3.54089 19.9075 4.89183C19.9075 4.89183 19.9073 5.09961 20.0113 5.30738C20.0113 5.30738 21.2065 3.95644 21.9338 4.6839" fill="#F7E4CD"/>
<path fill-rule="evenodd" clip-rule="evenodd" d="M14.8685 5.4481C14.8685 5.4481 14.6091 3.37454 12.8412 4.58005C11.6982 5.35941 11.8022 6.45051 12.0099 6.65829C12.2177 6.86622 12.1612 7.28474 12.3194 6.99746C12.4775 6.71019 12.4255 5.77496 12.9971 5.51528C13.5686 5.25544 14.5056 4.96521 14.8685 5.4481Z" fill="#F7E4CD"/>
<path fill-rule="evenodd" clip-rule="evenodd" d="M9.98351 19.4917L5.09961 21.6739C5.09961 21.6739 7.12591 29.7273 6.08671 32.2212L5.35931 31.9616L5.3073 28.896L3.9566 23.0769L3.38501 21.4661L8.47671 18.0371L9.98351 19.4917Z" fill="#49728B"/>
<path fill-rule="evenodd" clip-rule="evenodd" d="M10.4857 23.9458L11.1786 24.7912V27.9086H10.3472C10.3472 27.9086 10.2434 25.7264 10.2434 25.4666C10.2434 25.2068 10.3472 24.2715 10.3472 24.2715" fill="#49728B"/>
<path fill-rule="evenodd" clip-rule="evenodd" d="M10.5031 28.3762L8.16504 28.48L8.84064 28.9477L10.5031 29.2075" fill="#49728B"/>
<path fill-rule="evenodd" clip-rule="evenodd" d="M18.5046 27.8568L20.427 27.8049L20.8946 32.585L18.9202 32.8447L18.5046 27.8568Z" fill="#335061"/>
<path fill-rule="evenodd" clip-rule="evenodd" d="M19.0242 27.8568L21.9338 27.701C21.9338 27.701 23.1287 24.6875 23.1287 24.5316C23.1287 24.3757 24.1679 20.1672 24.1679 20.1672L21.8299 17.7253L21.3622 17.3096L20.1153 18.5566V23.3886L19.0242 27.8568Z" fill="#335061"/>
<path fill-rule="evenodd" clip-rule="evenodd" d="M20.323 27.4932L18.5046 27.8569L18.7643 29.3118C19.4397 29.6235 20.5829 28.7921 20.5829 28.7921" fill="#49728B"/>
<path fill-rule="evenodd" clip-rule="evenodd" d="M20.375 18.4007L24.012 21.1024L24.1159 19.8555L21.3621 17.3096L20.375 18.4007Z" fill="#49728B"/>
<path fill-rule="evenodd" clip-rule="evenodd" d="M12.3061 38.0928L11.2304 33.7278L10.6954 30.507L10.6069 28.1164L15.4755 27.8572L18.5045 27.8567L18.2291 33.3127L18.6967 37.5213L18.6448 38.3006L14.6962 38.6124L12.3061 38.0928Z" fill="white"/>
<path fill-rule="evenodd" clip-rule="evenodd" d="M17.8289 27.8048C17.8289 27.8048 17.5693 33.2084 18.3486 37.0531C18.3486 37.0531 16.7899 38.0404 14.5037 38.3001L18.8681 38.1442L19.3876 37.8325L18.7642 29.3116L18.6083 27.4929" fill="#DCD9D8"/>
<path fill-rule="evenodd" clip-rule="evenodd" d="M20.9832 32.1695L23.0095 31.598L26.8542 31.3902L27.4258 29.6237L26.3866 26.5582L25.1917 26.4023L23.529 26.9218L21.9338 27.7007L21.087 27.5453L20.427 27.8046" fill="white"/>
<path fill-rule="evenodd" clip-rule="evenodd" d="M20.9465 31.13C20.9465 31.13 22.2973 30.5067 22.5052 30.5586L21.9338 27.7009L22.6092 27.4412C22.6092 27.4412 23.0768 30.1429 23.0768 30.4546C23.0768 30.4546 25.9863 30.6105 26.2462 30.6105C26.2462 30.6105 26.8697 29.4155 26.7138 28.1685L27.2854 29.8311L27.3373 30.7664L26.506 32.0133L25.5708 32.2211L24.0121 32.1692L23.4925 31.4938L21.674 31.7535L21.1024 31.9615" fill="#DCD9D8"/>
<path d="M18.9046 27.4415L17.7617 24.5318L16.5667 22.8172C16.5667 22.8172 16.8262 22.0898 17.19 22.0898C17.5538 22.0898 18.3851 22.0898 18.3851 22.0898L19.5281 22.5055L19.4243 24.4279L18.9046 27.4415Z" fill="white"/>
<path fill-rule="evenodd" clip-rule="evenodd" d="M19.1281 26.454C19.1281 26.454 17.6732 23.6484 17.6732 23.2328C17.6732 23.2328 17.9329 22.6093 18.2967 22.7652C18.6605 22.921 19.4398 23.3366 19.4398 23.3366V22.3494L17.6732 21.9856L16.4783 22.1415L18.5046 26.9216L18.9202 26.9737" fill="#DCD9D8"/>
<path d="M12.7737 19.5964L11.3344 19.4399L9.9834 19.0242V19.4918L10.6435 20.2197L12.7217 21.1549" fill="white"/>
<path fill-rule="evenodd" clip-rule="evenodd" d="M10.4513 19.7517C10.4513 19.7517 12.0621 20.4272 12.5816 20.2714L12.6333 20.8942L11.1788 20.5831L10.2954 19.9596L10.4513 19.7517Z" fill="#DCD9D8"/>
<path fill-rule="evenodd" clip-rule="evenodd" d="M20.9774 22.267C20.0958 22.2411 19.2993 22.1364 18.602 21.9397C18.6493 21.6538 18.5607 21.3732 18.6319 21.1673C18.8263 21.0273 19.152 21.0295 19.4458 20.9966C19.1918 20.8718 18.8348 20.8224 18.5416 20.8945C18.5348 20.6961 18.4458 20.5731 18.3918 20.4179C18.8875 20.241 20.0576 19.0811 20.7159 19.4652C21.0295 19.6479 21.1628 20.6913 21.1871 21.1987C21.2074 21.6195 21.1489 22.0441 20.9774 22.267Z" fill="#D33833"/>
<path d="M20.9774 22.267C20.0958 22.2411 19.2993 22.1364 18.602 21.9397C18.6493 21.6538 18.5607 21.3732 18.6319 21.1673C18.8263 21.0273 19.152 21.0295 19.4458 20.9966C19.1918 20.8718 18.8348 20.8224 18.5416 20.8945C18.5348 20.6961 18.4458 20.5731 18.3918 20.4179C18.8875 20.241 20.0576 19.0811 20.7159 19.4652C21.0295 19.6479 21.1628 20.6913 21.1871 21.1987C21.2074 21.6195 21.1489 22.0441 20.9774 22.267Z" stroke="#D33833" stroke-width="2.5"/>
<path fill-rule="evenodd" clip-rule="evenodd" d="M16.7617 20.8258C16.7594 20.8925 16.7565 20.9596 16.7539 21.027C16.4786 21.2078 16.0342 21.2056 15.7322 21.3576C16.1775 21.3771 16.528 21.4843 16.8314 21.6355C16.8247 21.8035 16.8183 21.9714 16.8117 22.1394C16.3072 22.4849 15.8463 22.9992 15.2522 23.3231C14.9713 23.4763 13.9856 23.8705 13.6867 23.8009C13.5176 23.7616 13.5024 23.5518 13.4348 23.354C13.2908 22.9305 12.9593 22.2563 12.9304 21.6188C12.8935 20.8136 12.8123 19.4641 13.68 19.6299C14.3801 19.7635 15.1944 20.086 15.7364 20.3821C16.0676 20.5633 16.2592 20.7871 16.7617 20.8258Z" fill="#D33833"/>
<path d="M16.7617 20.8258C16.7594 20.8925 16.7565 20.9596 16.7539 21.027C16.4786 21.2078 16.0342 21.2056 15.7322 21.3576C16.1775 21.3771 16.528 21.4843 16.8314 21.6355C16.8247 21.8035 16.8183 21.9714 16.8117 22.1394C16.3072 22.4849 15.8463 22.9992 15.2522 23.3231C14.9713 23.4763 13.9856 23.8705 13.6867 23.8009C13.5176 23.7616 13.5024 23.5518 13.4348 23.354C13.2908 22.9305 12.9593 22.2563 12.9304 21.6188C12.8935 20.8136 12.8123 19.4641 13.68 19.6299C14.3801 19.7635 15.1944 20.086 15.7364 20.3821C16.0676 20.5633 16.2592 20.7871 16.7617 20.8258Z" stroke="#D33833" stroke-width="2.5"/>
<path fill-rule="evenodd" clip-rule="evenodd" d="M17.2627 21.7866C17.1857 21.348 17.0967 21.2228 17.1312 20.8401C18.301 20.0602 18.5206 22.1799 17.2627 21.7866Z" fill="#D33833"/>
<path d="M17.2627 21.7866C17.1857 21.348 17.0967 21.2228 17.1312 20.8401C18.301 20.0602 18.5206 22.1799 17.2627 21.7866Z" stroke="#D33833" stroke-width="2.5"/>
<path fill-rule="evenodd" clip-rule="evenodd" d="M18.9567 22.1421C18.9567 22.1421 18.5929 21.6225 18.8527 21.4666C19.1126 21.3107 19.3724 21.4667 19.5283 21.2069C19.6842 20.9471 19.5283 20.7912 19.5802 20.4795C19.6321 20.1677 19.8921 20.1157 20.1518 20.0637C20.4114 20.0118 21.1391 19.9079 21.2429 20.1677L20.9311 19.2325L20.3076 19.0247L18.3332 20.1677L18.2292 20.7393V21.8823" fill="#EF3D3A"/>
<path fill-rule="evenodd" clip-rule="evenodd" d="M13.5012 23.8566C13.4388 23.0458 13.3727 22.236 13.2992 21.426C13.1893 20.2164 13.5898 20.4274 14.6382 20.4274C14.7984 20.4274 15.6243 20.6184 15.6834 20.7392C15.9667 21.3179 15.2095 21.1893 16.0097 21.6258C16.6853 21.9941 17.8786 21.4021 17.6057 20.5833C17.453 20.4013 16.8098 20.5266 16.5793 20.407C16.1734 20.1966 15.7675 19.9862 15.3616 19.7758C14.8452 19.5078 13.6516 19.1172 13.101 19.4916C11.7059 20.4404 13.189 22.811 13.6867 23.8008" fill="#EF3D3A"/>
<path fill-rule="evenodd" clip-rule="evenodd" d="M14.8684 5.44804C13.4523 5.11822 12.7486 6.04066 12.3193 6.9974C11.9361 6.9045 12.0886 6.38327 12.1854 6.11766C12.4389 5.42061 13.4604 4.4927 14.295 4.61849C14.6542 4.67258 15.1402 5.001 14.8684 5.44804Z" fill="#231F20"/>
<path fill-rule="evenodd" clip-rule="evenodd" d="M21.7683 7.06079C21.7906 7.06173 21.8132 7.06251 21.8355 7.06344C22.1555 7.72823 22.4324 8.43246 22.8361 9.01932C22.5657 9.64922 20.7883 10.2066 20.8157 9.07559C21.2001 8.90756 21.8637 9.0413 22.2044 8.82666C22.0074 8.28594 21.7231 7.82565 21.7683 7.06079Z" fill="#231F20"/>
<path fill-rule="evenodd" clip-rule="evenodd" d="M15.5933 7.07788C15.897 7.6345 15.9958 8.21933 16.4274 8.64003C16.6218 8.82941 16.9998 9.06025 16.8124 9.58696C16.7686 9.71116 16.4486 9.98816 16.2639 10.0426C15.5891 10.2418 14.0168 10.0837 14.5493 9.24246C15.1073 9.26846 15.8574 9.60486 16.2745 9.19976C15.9542 8.68772 15.3831 7.67471 15.5933 7.07788Z" fill="#231F20"/>
<path fill-rule="evenodd" clip-rule="evenodd" d="M21.515 12.7349C20.499 13.3876 19.3661 14.0973 17.7014 13.9327C17.3457 13.6234 17.2101 12.9352 17.5557 12.4807C17.7355 12.79 17.6225 13.3587 18.1238 13.4443C19.0684 13.6059 20.1678 12.8665 20.8472 12.6081C21.2685 11.8977 20.8109 11.6365 20.4313 11.1793C19.6543 10.2427 18.612 9.0818 18.6499 7.67958C18.964 7.45185 18.9911 8.02718 19.0361 8.13192C19.4419 9.08149 20.463 10.2959 21.2082 11.1086C21.3912 11.3087 21.6925 11.5007 21.726 11.6331C21.8226 12.0179 21.4746 12.479 21.515 12.7349Z" fill="#231F20"/>
<path fill-rule="evenodd" clip-rule="evenodd" d="M8.12119 12.0483C7.80269 11.8665 7.7269 11.066 7.3531 11.0432C6.8188 11.0108 6.91619 12.0818 6.91829 12.7081C6.55059 12.3742 6.4859 11.3462 6.7561 10.8183C6.4482 10.6671 6.31069 10.9851 6.13989 11.0971C6.35939 9.50262 8.47249 10.3575 8.12119 12.0483Z" fill="#231F20"/>
<path fill-rule="evenodd" clip-rule="evenodd" d="M22.1617 13.3989C21.6888 14.2991 21.0198 15.2904 19.6321 15.3193C19.6039 15.0286 19.5822 14.5862 19.6336 14.4112C20.6945 14.3092 21.3495 13.7693 22.1617 13.3989Z" fill="#231F20"/>
<path fill-rule="evenodd" clip-rule="evenodd" d="M15.5134 13.9829C16.3985 14.4484 18.0252 14.4984 19.2282 14.4632C19.2928 14.7268 19.2912 15.0524 19.2937 15.3738C17.7473 15.4509 15.9189 15.0683 15.5134 13.9829Z" fill="#231F20"/>
<path fill-rule="evenodd" clip-rule="evenodd" d="M15.3451 14.8506C15.9571 16.3874 18.0608 16.2104 19.8347 16.168C19.7567 16.3676 19.5874 16.6032 19.377 16.6885C18.8085 16.9198 17.2406 17.0953 16.4514 16.6762C15.9509 16.4101 15.6293 15.8089 15.3551 15.4565C15.2227 15.2863 14.5633 14.8516 15.3451 14.8506Z" fill="#231F20"/>
<path fill-rule="evenodd" clip-rule="evenodd" d="M21.4411 23.3277C20.7228 24.5579 20.0355 25.8213 19.1833 26.9064C19.5406 25.856 19.6936 24.0978 19.7475 22.7575C20.495 22.4078 21.135 22.8362 21.4411 23.3277Z" fill="#81B0C4"/>
<path fill-rule="evenodd" clip-rule="evenodd" d="M25.306 27.7485C24.5019 27.9095 23.9368 28.691 23.1523 28.6408C23.5835 28.0331 24.339 27.7769 25.306 27.7485Z" fill="#231F20"/>
<path fill-rule="evenodd" clip-rule="evenodd" d="M25.6609 29.0072C25.0054 29.0765 24.2356 29.1826 23.5708 29.1279C23.8855 28.6472 25.098 28.8131 25.6609 29.0072Z" fill="#231F20"/>
<path fill-rule="evenodd" clip-rule="evenodd" d="M25.8881 30.092C25.1514 30.1079 24.2358 30.0933 23.5356 30.0345C23.9498 29.5897 25.4103 29.8694 25.8881 30.092Z" fill="#231F20"/>
<path fill-rule="evenodd" clip-rule="evenodd" d="M20.055 33.0615C20.1607 33.9866 20.5275 34.924 20.4815 35.9371C20.0742 36.0745 19.8402 36.1946 19.2945 36.1939C19.256 35.3328 19.1408 34.0165 19.1753 33.1957C19.4437 33.2135 19.8395 33.004 20.055 33.0615Z" fill="#DCD9D8"/>
<path fill-rule="evenodd" clip-rule="evenodd" d="M18.8676 19.4272C18.4977 19.6686 18.1827 19.9701 17.8274 20.2279C17.0397 20.2669 16.6098 20.1733 16.031 19.721C16.0405 19.6847 16.0987 19.7009 16.1008 19.6563C16.9441 20.0321 18.016 19.5033 18.8676 19.4272Z" fill="#F0D6B7"/>
<path fill-rule="evenodd" clip-rule="evenodd" d="M14.4407 25.1752C14.6724 24.1712 15.5802 23.6513 16.4046 23.0984C17.2555 24.1783 17.773 25.5671 18.3428 26.9073C16.9964 26.5014 15.6207 25.8428 14.4407 25.1752Z" fill="#81B0C4"/>
<path fill-rule="evenodd" clip-rule="evenodd" d="M19.1754 33.1957C19.141 34.0165 19.2562 35.3328 19.2947 36.1939C19.8404 36.1946 20.0743 36.0745 20.4816 35.9371C20.5276 34.924 20.1608 33.9866 20.0552 33.0615C19.8396 33.0039 19.4438 33.2134 19.1754 33.1957ZM10.6782 28.5275C11.0381 31.8356 11.5593 34.6164 12.5152 37.5458C14.6368 38.1899 17.1944 38.2461 19.0697 37.6648C18.7254 36.0115 18.8758 33.9986 18.6746 32.2343C18.5229 30.9081 18.6003 29.5738 18.3923 28.2209C16.12 27.7481 12.9082 28.1104 10.6782 28.5275ZM18.9296 28.2416C18.9104 29.6624 18.9932 31.0638 19.1017 32.4863C19.6472 32.4044 20.0174 32.3498 20.5243 32.2386C20.3597 30.8692 20.38 29.3282 20.0447 28.1168C19.6572 28.1205 19.316 28.1122 18.9296 28.2416ZM21.6971 28.0126C21.4382 27.9533 21.1368 28.0103 20.8894 28.0151C21.0057 29.1733 21.2878 30.4512 21.3871 31.6669C21.7763 31.679 21.9842 31.4955 22.3044 31.4337C22.3215 30.3666 22.2112 28.8964 21.6971 28.0126ZM25.8876 31.8413C26.6989 31.6443 27.209 30.6506 26.9821 29.6301C26.8298 28.9443 26.5586 27.6528 26.2684 27.2141C26.0539 26.8896 25.4723 26.4647 25.008 26.7621C24.2526 27.2458 22.9219 27.3862 22.3711 27.9716C22.6473 28.8913 22.733 30.1545 22.847 31.3197C23.7906 31.3785 24.9517 31.06 25.7365 31.398C25.1886 31.5755 24.4777 31.5769 24.0043 31.8356C24.3912 32.0224 25.297 31.9847 25.8876 31.8413ZM18.3429 26.9073C17.773 25.5672 17.2555 24.1784 16.4046 23.0985C15.5803 23.6513 14.6724 24.1713 14.4407 25.1753C15.6208 25.8429 16.9965 26.5015 18.3429 26.9073ZM19.7476 22.7573C19.6937 24.0976 19.5408 25.8557 19.1835 26.9061C20.0357 25.8211 20.7229 24.5576 21.4412 23.3274C21.135 22.836 20.495 22.4075 19.7476 22.7573ZM18.1552 22.1914C17.8324 22.1567 17.5584 22.5626 17.1386 22.3871C17.0425 22.4934 16.955 22.6086 16.857 22.7124C17.7841 23.8297 18.2054 25.4149 18.9215 26.7279C19.3057 25.4666 19.2615 24.0848 19.3461 22.7082C18.8182 22.7417 18.5253 22.2307 18.1552 22.1914ZM17.1313 20.84C17.0969 21.2227 17.1859 21.3479 17.2629 21.7865C18.5208 22.1798 18.3011 20.0601 17.1313 20.84ZM15.7364 20.3821C15.1944 20.0859 14.3802 19.7634 13.6801 19.6299C12.8123 19.4639 12.8936 20.8135 12.9304 21.6188C12.9594 22.2563 13.2909 22.9304 13.4349 23.354C13.5025 23.5517 13.5177 23.7615 13.6868 23.8008C13.9856 23.8705 14.9714 23.4763 15.2523 23.3231C15.8463 22.9992 16.3072 22.4848 16.8118 22.1394C16.8183 21.9714 16.8247 21.8035 16.8314 21.6355C16.5281 21.4843 16.1775 21.377 15.7322 21.3575C16.0343 21.2056 16.4787 21.2077 16.754 21.0269C16.7566 20.9596 16.7594 20.8924 16.7617 20.8257C16.2592 20.787 16.0677 20.5632 15.7364 20.3821ZM10.5594 19.4417C10.1095 19.8984 11.8211 20.521 12.366 20.5545C12.363 20.2655 12.5307 19.993 12.4969 19.7857C11.8497 19.6721 10.9991 19.7471 10.5594 19.4417ZM16.1009 19.6562C16.0987 19.7008 16.0405 19.6846 16.031 19.7209C16.6098 20.1732 17.0397 20.2667 17.8274 20.2278C18.1827 19.97 18.4977 19.6685 18.8676 19.4271C18.016 19.5031 16.9441 20.032 16.1009 19.6562ZM21.1873 21.1985C21.1629 20.6912 21.0297 19.6478 20.7161 19.4651C20.0578 19.0809 18.8877 20.2409 18.392 20.4178C18.4459 20.573 18.5349 20.696 18.5418 20.8944C18.835 20.8223 19.1919 20.8717 19.446 20.9965C19.1522 21.0294 18.8264 21.0272 18.632 21.1672C18.5608 21.3731 18.6495 21.6537 18.6021 21.9396C19.2995 22.1363 20.096 22.241 20.9776 22.2669C21.1491 22.044 21.2075 21.6194 21.1873 21.1985ZM9.8021 19.8835C9.6608 19.7828 8.7052 18.5394 8.5743 18.591C6.8451 19.2729 5.2282 20.4521 3.7833 21.5673C5.1609 24.5233 5.717 28.1448 5.8153 31.6354C7.3933 32.3734 8.77939 33.4375 10.9209 33.5486C10.673 31.7953 10.4468 30.2311 10.3062 28.5805C9.76809 28.3537 8.99619 28.5908 8.49269 28.5101C8.48839 27.9033 9.2617 28.2444 9.3261 27.8364C9.3746 27.5277 8.9006 27.5043 9.055 27.0183C9.4486 27.1614 9.6553 27.4775 10.0751 27.5962C10.4587 26.757 10.0698 25.2721 10.125 24.5707C10.1355 24.439 10.1908 23.8411 10.4858 23.946C10.7469 24.0388 10.4709 25.5362 10.4995 26.2C10.5256 26.8116 10.4256 27.4035 10.6733 27.7874C12.7426 27.5057 14.8453 27.3237 17.0842 27.2623C16.5917 27.0509 16.0066 26.8509 15.365 26.4893C15.0172 26.2932 13.921 25.8853 13.8206 25.555C13.6605 25.0286 14.2407 24.7482 14.34 24.297C13.2955 24.8666 13.0917 23.7509 12.8446 22.9605C12.6207 22.2446 12.4933 21.7098 12.4383 21.2969C11.5386 20.8679 10.5765 20.4335 9.8021 19.8835ZM20.2734 18.7414C21.7141 18.0428 21.9738 21.3524 21.4091 22.4186C21.4963 22.7365 21.7966 22.8583 21.9191 23.1441C21.1151 24.5844 20.2221 25.9288 19.4017 27.3521C20.012 26.9722 20.8836 27.2841 21.6017 26.9998C21.8642 26.896 22.0542 26.2951 22.2529 25.8144C22.7996 24.4918 23.3735 22.8244 23.6288 21.5624C23.6865 21.2748 23.8436 20.6482 23.8084 20.3922C23.7456 19.934 23.1238 19.5942 22.8075 19.3108C22.2249 18.7874 21.858 18.3268 21.2502 17.8373C21.0038 18.2011 20.4749 18.4455 20.2734 18.7414ZM6.5071 5.96491C5.8206 6.72026 5.9643 8.13558 6.0474 9.1425C7.2883 8.3619 8.9353 9.2042 8.9198 10.5319C9.5122 10.5162 9.14109 9.792 9.03389 9.3255C8.68369 7.8017 9.62399 6.14619 9.07659 4.7527C8.01379 4.83328 7.1407 5.26738 6.5071 5.96491ZM11.4192 1.58087C9.86509 2.02136 7.87329 3.15065 7.23459 4.54679C7.72909 4.47494 8.0724 4.22554 8.5603 4.19468C8.7446 4.18268 8.98619 4.27199 9.19799 4.21931C9.62029 4.11456 9.97669 3.16779 10.2952 2.81553C10.6058 2.47152 10.979 2.32453 11.2344 2.01092C11.3985 1.93174 11.6411 1.93719 11.6505 1.69076C11.5793 1.61469 11.5044 1.55671 11.4192 1.58087ZM19.5095 1.99517C17.8963 1.08504 15.1659 0.400452 13.45 1.25588C12.0654 1.94623 10.1938 3.08846 9.5558 4.53588C10.1518 5.93264 9.3792 7.21251 9.3299 8.63063C9.3037 9.3852 9.6851 10.0439 9.7144 10.8654C9.5104 11.2019 8.8872 11.2433 8.4558 11.2203C8.3106 10.4936 8.05639 9.6768 7.30809 9.5948C6.24929 9.479 5.4751 10.3553 5.427 11.2711C5.3701 12.348 6.2541 14.1329 7.5072 14.009C7.9913 13.9611 8.1102 13.4759 8.6376 13.4809C8.9234 14.0512 8.1966 14.2303 8.1219 14.6382C8.1024 14.7436 8.1821 15.1554 8.2285 15.3485C8.4561 16.2889 8.96349 17.506 9.46289 18.2219C10.0967 19.13 11.342 19.2668 12.6817 19.3558C12.921 18.8404 13.8025 18.8828 14.3768 19.0176C13.6885 18.745 13.0486 18.0841 12.5182 17.4991C11.909 16.8279 11.292 16.1079 11.2608 15.2307C12.412 16.8278 13.363 18.2225 15.4564 18.925C17.0403 19.4562 18.8902 18.6815 20.1072 17.8269C20.6122 17.4717 20.9137 16.908 21.2727 16.3921C22.6158 14.4601 23.2426 11.7024 23.1048 9.0295C23.048 7.92718 23.0505 6.82859 22.6807 6.08696C22.2941 5.3115 20.9866 4.61771 20.2213 5.31914C20.0795 4.56503 20.8577 4.09866 21.7719 4.37003C21.1201 3.52879 20.436 2.51797 19.5095 1.99517ZM22.5148 26.8672C23.7753 26.2405 26.1306 25.1805 26.9208 26.8695C27.2125 27.492 27.5546 28.5445 27.7056 29.1872C27.919 30.0938 27.4743 31.9995 26.5424 32.3038C25.7192 32.5725 24.7587 32.5561 23.7672 32.3569C23.6505 32.2598 23.5205 32.0906 23.4296 31.9141C22.7217 31.8866 22.0587 31.9521 21.4995 32.2431C21.5525 32.7667 21.1983 32.8507 20.8663 32.9586C20.6202 33.9345 21.3587 35.2089 21.182 36.0988C21.0559 36.7327 20.2759 36.8308 19.7026 36.9494C19.6839 37.3017 19.7277 37.5957 19.7668 37.8938C19.6357 38.3768 19.0478 38.6518 18.4907 38.7191C16.6578 38.9395 13.8748 39.0385 12.1118 38.4046C11.6198 37.1979 11.2323 35.7302 10.8225 34.3522C9.1031 34.5359 7.71239 33.6103 6.40139 33.0039C5.94749 32.7935 5.3195 32.6776 5.15 32.3163C4.9856 31.9665 5.0528 31.296 5.012 30.6628C4.9082 29.0453 4.81929 27.4852 4.39219 25.829C4.20039 25.0858 3.86609 24.4301 3.63289 23.714C3.41739 23.0503 3.04079 22.2301 2.94259 21.5683C2.79699 20.5874 3.7206 20.5328 4.3112 20.1078C5.2242 19.4504 5.9409 19.087 6.9297 18.4937C7.2225 18.318 8.10569 17.8733 8.20619 17.6685C8.40589 17.2625 7.86339 16.69 7.71839 16.3717C7.48889 15.8684 7.3693 15.4408 7.3364 14.9442C6.5069 14.8131 5.87819 14.3195 5.49829 13.7629C4.87009 12.8417 4.43429 11.1374 4.97789 9.841C5.02059 9.7389 5.2332 9.5381 5.2645 9.3813C5.3264 9.07252 5.1481 8.66196 5.137 8.33353C5.0799 6.64856 5.42209 5.19677 6.55639 4.68863C7.01689 2.85418 8.6651 2.24426 10.2179 1.33256C10.7984 0.991832 11.4382 0.774082 12.099 0.530922C14.4695 -0.341495 18.1066 -0.177205 20.074 1.31074C20.9082 1.94171 22.2417 3.27394 22.7187 4.23848C23.9784 6.78495 23.889 11.0407 23.0078 14.1383C22.8894 14.5542 22.7176 15.1655 22.4777 15.6651C22.3105 16.0139 21.7906 16.7119 21.8538 17.0199C21.9188 17.3384 23.039 18.189 23.2792 18.4206C23.7117 18.8379 24.5335 19.3917 24.6001 19.9182C24.6716 20.4786 24.3532 21.2452 24.1918 21.7859C23.6525 23.5904 23.1263 25.2584 22.5148 26.8672Z" fill="#231F20"/>
<path fill-rule="evenodd" clip-rule="evenodd" d="M14.1049 14.3761C14.1733 14.2851 14.5492 14.1468 15.0753 14.4001C15.0753 14.4001 14.4518 14.5041 14.5037 15.5436L14.2439 15.4915C14.2439 15.4915 13.9754 14.549 14.1049 14.3761Z" fill="#F7E4CD"/>
<path fill-rule="evenodd" clip-rule="evenodd" d="M18.6604 23.3106C18.6604 23.4683 18.5325 23.5962 18.3746 23.5962C18.2168 23.5962 18.0889 23.4683 18.0889 23.3106C18.0889 23.1528 18.2168 23.0247 18.3746 23.0247C18.5325 23.0247 18.6604 23.1528 18.6604 23.3106Z" fill="#1D1919"/>
<path fill-rule="evenodd" clip-rule="evenodd" d="M18.9461 24.6355C18.9461 24.7933 18.8181 24.9212 18.6602 24.9212C18.5025 24.9212 18.3745 24.7933 18.3745 24.6355C18.3745 24.4778 18.5025 24.3496 18.6602 24.3496C18.8181 24.3496 18.9461 24.4778 18.9461 24.6355Z" fill="#1D1919"/>
</svg>
