<svg width="38" height="39" viewBox="0 0 38 39" fill="none" xmlns="http://www.w3.org/2000/svg">
<path d="M3.80429 23.2306C5.90534 23.2306 7.60857 21.5368 7.60857 19.4474C7.60857 17.3581 5.90534 15.6643 3.80429 15.6643C1.70324 15.6643 0 17.3581 0 19.4474C0 21.5368 1.70324 23.2306 3.80429 23.2306Z" fill="#FF6309"/>
<path d="M31.0833 38.8888C33.1845 38.8888 34.8879 37.1949 34.8879 35.1054C34.8879 33.0159 33.1845 31.322 31.0833 31.322C28.9822 31.322 27.2788 33.0159 27.2788 35.1054C27.2788 37.1949 28.9822 38.8888 31.0833 38.8888Z" fill="#FFB515"/>
<path d="M31.0802 7.56631C33.1812 7.56631 34.8844 5.87254 34.8844 3.78316C34.8844 1.69378 33.1812 0 31.0802 0C28.9791 0 27.2759 1.69378 27.2759 3.78316C27.2759 5.87254 28.9791 7.56631 31.0802 7.56631Z" fill="#C90016"/>
<path d="M21.9898 10.086C26.727 10.086 30.6572 13.5839 31.3081 18.1188H37.8258C37.5293 14.5554 36.0443 11.2341 33.5602 8.61494C31.9694 9.42044 30.0133 9.43594 28.3517 8.48224C26.6889 7.52721 25.7242 5.83392 25.6316 4.0592C24.4375 3.78266 23.2154 3.64328 21.9893 3.6438C19.611 3.6438 17.3128 4.15996 15.2227 5.13893L18.4864 10.7594C19.6 10.3137 20.7894 10.0851 21.9898 10.086Z" fill="#FF6309"/>
<path d="M12.5767 19.4473C12.5767 16.4648 13.9864 13.8041 16.1776 12.0887L12.9151 6.46899C12.1423 7.00601 11.4184 7.60943 10.7516 8.27231C8.86359 10.1498 7.50965 12.4167 6.76465 14.8908C8.2658 15.8577 9.25979 17.5363 9.25979 19.4473C9.25979 21.3578 8.2658 23.0367 6.76465 24.0033C7.50965 26.4774 8.86359 28.744 10.7516 30.6221C11.4179 31.2846 12.1412 31.8879 12.9133 32.4249L16.1763 26.8044C13.9856 25.0892 12.5767 22.4288 12.5767 19.4473Z" fill="#FFB515"/>
<path d="M31.3085 20.7717C30.6594 25.308 26.7284 28.8082 21.9899 28.8082C20.7518 28.8082 19.5686 28.5686 18.4852 28.1344L15.2217 33.7551C17.3113 34.7346 19.6108 35.251 21.9897 35.251C23.2325 35.251 24.4537 35.1085 25.6346 34.8351C25.7256 33.058 26.6903 31.3617 28.3544 30.4062C30.0165 29.4519 31.9735 29.4669 33.5643 30.2742C36.0459 27.6546 37.53 24.3337 37.8251 20.7717H31.3085Z" fill="#C90016"/>
</svg>
