<svg width="14" height="17" viewBox="0 0 14 17" fill="none" xmlns="http://www.w3.org/2000/svg">
<path fill-rule="evenodd" clip-rule="evenodd" d="M6.66667 0C2.985 0 0 3.33583 0 7.08335C0 10.8017 2.1275 14.8434 5.4475 16.395C5.8291 16.5737 6.24531 16.6663 6.66667 16.6663C7.08805 16.6663 7.50425 16.5737 7.88585 16.395C11.2058 14.8434 13.3333 10.8017 13.3333 7.08335C13.3333 3.33583 10.3483 0 6.66667 0ZM6.66667 8.33335C7.10865 8.33335 7.53265 8.15775 7.84515 7.84515C8.15775 7.53265 8.33335 7.10865 8.33335 6.66665C8.33335 6.22465 8.15775 5.80075 7.84515 5.48815C7.53265 5.17555 7.10865 4.99995 6.66667 4.99995C6.22464 4.99995 5.80072 5.17555 5.48816 5.48815C5.1756 5.80075 5 6.22465 5 6.66665C5 7.10865 5.1756 7.53265 5.48816 7.84515C5.80072 8.15775 6.22464 8.33335 6.66667 8.33335Z" fill="#1C1917"/>
</svg>
